<svg width="18" height="18" viewBox="0 0 18 18" fill="none" xmlns="http://www.w3.org/2000/svg">

<g id='burgermenu'>
<path fill-rule="evenodd" clip-rule="evenodd" d="M18 14H0V12H18V14ZM12 8H0V6H12V8ZM0 2V0H18V2H0Z" fill="#BCBFC2"/>
</g>

<g id='sun'>
<path fill-rule="evenodd" clip-rule="evenodd" d="M9 15.4763C9.4151 15.4763 9.74939 15.8106 9.74939 16.2257V17.2506C9.74939 17.6657 9.4151 18 9 18C8.5849 18 8.25061 17.6657 8.25061 17.2506V16.2257C8.25061 15.8106 8.5849 15.4763 9 15.4763ZM9 2.52367C8.5849 2.52367 8.25061 2.18939 8.25061 1.77429V0.749388C8.25061 0.334286 8.5849 0 9 0C9.4151 0 9.74939 0.334286 9.74939 0.749388V1.77429C9.74939 2.18939 9.4151 2.52367 9 2.52367ZM17.2506 8.25061C17.6657 8.25061 18 8.5849 18 9C18 9.4151 17.6657 9.74939 17.2506 9.74939H16.2257C15.8106 9.74939 15.4763 9.4151 15.4763 9C15.4763 8.5849 15.8106 8.25061 16.2257 8.25061H17.2506ZM1.77429 8.25061C2.18939 8.25061 2.52367 8.5849 2.52367 9C2.52367 9.4151 2.18939 9.74939 1.77429 9.74939H0.749388C0.334286 9.74939 0 9.4151 0 9C0 8.5849 0.334286 8.25061 0.749388 8.25061H1.77429ZM14.6388 4.42286C14.3449 4.71306 13.871 4.71673 13.5771 4.42286C13.2833 4.12898 13.2833 3.6551 13.5771 3.36122L14.3008 2.63755C14.5947 2.34367 15.0686 2.34367 15.3624 2.63755C15.6563 2.93143 15.6563 3.40531 15.3624 3.69918L14.6388 4.42286ZM3.36122 13.5771C3.6551 13.2869 4.12898 13.2833 4.42286 13.5771C4.71673 13.871 4.71673 14.3449 4.42286 14.6388L3.69918 15.3624C3.40531 15.6563 2.93143 15.6563 2.63755 15.3624C2.34367 15.0686 2.34367 14.5947 2.63755 14.3008L3.36122 13.5771ZM14.6388 13.5771L15.3624 14.3008C15.6563 14.5947 15.6563 15.0686 15.3624 15.3624C15.0686 15.6563 14.5947 15.6563 14.3008 15.3624L13.5771 14.6388C13.2833 14.3449 13.2833 13.871 13.5771 13.5771C13.871 13.2833 14.3449 13.2833 14.6388 13.5771ZM3.36122 4.42286L2.63755 3.69918C2.34367 3.40531 2.34367 2.93143 2.63755 2.63755C2.93143 2.34367 3.40531 2.34367 3.69918 2.63755L4.42286 3.36122C4.71673 3.6551 4.71673 4.12898 4.42286 4.42286C4.12898 4.71673 3.6551 4.71673 3.36122 4.42286ZM9 3.36122C12.1078 3.36122 14.6388 5.89224 14.6388 9C14.6388 12.1114 12.1078 14.6388 9 14.6388C5.88857 14.6388 3.36122 12.1078 3.36122 9C3.36122 5.88857 5.89224 3.36122 9 3.36122ZM9 13.1363C11.2812 13.1363 13.1363 11.2812 13.1363 9C13.1363 6.71878 11.2812 4.86367 9 4.86367C6.71878 4.86367 4.86367 6.71878 4.86367 9C4.86367 11.2812 6.71878 13.1363 9 13.1363Z" fill="#BCBFC2"/>
</g>

<g id='search'>
<path fill-rule="evenodd" clip-rule="evenodd" d="M17.4354 16.3951L13.146 11.9395C14.2489 10.6301 14.8532 8.98262 14.8532 7.26749C14.8532 3.26026 11.5888 0 7.57659 0C3.56433 0 0.299988 3.26026 0.299988 7.26749C0.299988 11.2747 3.56433 14.535 7.57659 14.535C9.08284 14.535 10.5182 14.0812 11.7454 13.2199L16.0674 17.7093C16.2481 17.8967 16.4911 18 16.7514 18C16.9979 18 17.2317 17.9062 17.4092 17.7355C17.7863 17.3731 17.7983 16.7721 17.4354 16.3951ZM7.57659 1.89587C10.5423 1.89587 12.9549 4.30552 12.9549 7.26749C12.9549 10.2295 10.5423 12.6391 7.57659 12.6391C4.6109 12.6391 2.19823 10.2295 2.19823 7.26749C2.19823 4.30552 4.6109 1.89587 7.57659 1.89587Z" fill="#BCBFC2"/>
</g>

<g id='share'>
<path fill-rule="evenodd" clip-rule="evenodd" d="M17.7816 5.13237L11.665 0.202036C11.0971 -0.25578 10.125 0.131603 10.125 0.695069V2.8785C6.93568 2.98415 4.54369 3.82935 2.75243 5.27323C0 7.49188 0 10 0 11.2C2.75243 7.84 10.125 7.84 10.125 7.84V10.5205C10.125 11.084 11.1408 11.4361 11.665 11.0135L17.7816 6.08322C17.9563 5.94235 18 5.77608 18 5.6C18 5.42392 17.9563 5.27323 17.7816 5.13237Z" fill="white"/>
</g>

<g id='threedots'>
<path fill-rule="evenodd" clip-rule="evenodd" d="M2 4C0.89543 4 0 3.10457 0 2C0 0.89543 0.89543 0 2 0C3.10457 0 4 0.89543 4 2C4 3.10457 3.10457 4 2 4ZM10 4C8.89543 4 8 3.10457 8 2C8 0.89543 8.89543 0 10 0C11.1046 0 12 0.89543 12 2C12 3.10457 11.1046 4 10 4ZM18 4C16.8954 4 16 3.10457 16 2C16 0.89543 16.8954 0 18 0C19.1046 0 20 0.89543 20 2C20 3.10457 19.1046 4 18 4Z" fill="#BCBFC2"/>
</g>

<g id='playblack'>
<path fill-rule="evenodd" clip-rule="evenodd" d="M10 19.9995C4.47715 19.9995 0 15.5224 0 9.99951C0 4.47666 4.47715 -0.000488281 10 -0.000488281C15.5228 -0.000488281 20 4.47666 20 9.99951C20 15.5224 15.5228 19.9995 10 19.9995ZM10 18.9995C14.9706 18.9995 19 14.9701 19 9.99951C19 5.02895 14.9706 0.999512 10 0.999512C5.02944 0.999512 1 5.02895 1 9.99951C1 14.9701 5.02944 18.9995 10 18.9995Z" fill="#BCBFC2"/>
<path fill-rule="evenodd" clip-rule="evenodd" d="M8.2 12.3687V7.62986C8.2 7.44731 8.3532 7.29932 8.54218 7.29932C8.60779 7.29932 8.67202 7.31754 8.72722 7.35181L12.5428 9.72125C12.7018 9.81997 12.7478 10.0245 12.6456 10.178C12.6191 10.2179 12.584 10.2517 12.5428 10.2773L8.72722 12.6468C8.56825 12.7455 8.35654 12.701 8.25434 12.5475C8.21886 12.4942 8.2 12.4321 8.2 12.3687Z" fill="#262D33"/>
</g>

<g id='photostack'>
<path fill-rule="evenodd" clip-rule="evenodd" d="M3 3V1C3 0.447715 3.44772 0 4 0H18C18.5523 0 19 0.447715 19 1V11C19 11.5523 18.5523 12 18 12H16V14C16 14.5523 15.5523 15 15 15H1C0.447715 15 0 14.5523 0 14V4C0 3.44772 0.447715 3 1 3H3ZM15 12H4C3.44772 12 3 11.5523 3 11V4H1V14H15V12ZM4 1V11H18V1H4ZM18 11H4V10L7 7L10 9L14 5L18 10V11ZM9.5 6C8.67157 6 8 5.32843 8 4.5C8 3.67157 8.67157 3 9.5 3C10.3284 3 11 3.67157 11 4.5C11 5.32843 10.3284 6 9.5 6Z" fill="white"/>
</g>

<g id='editpencil'>
<path fill-rule="evenodd" clip-rule="evenodd" d="M0 14.2V18H3.8L14.8 6.90004L11 3.10004L0 14.2ZM17.7 4.00004C18.1 3.60004 18.1 3.00004 17.7 2.60004L15.4 0.3C15 -0.1 14.4 -0.1 14 0.3L12.2 2.1L16 5.9L17.7 4.00004Z" fill="#BCBFC2"/>
</g>

<g id='authorize'>
<path fill-rule="evenodd" clip-rule="evenodd" d="M16 15.6316C14.3675 17.2105 11.7008 18 8 18C4.29917 18 1.63251 17.2105 0 15.6316C0 12.3481 1.90591 9.98316 4.70588 9C5.60059 9.41686 6.59455 10 8 10C9.40545 10 10.3311 9.39256 11.2941 9C14.0575 9.99655 16 12.3748 16 15.6316ZM8 8C5.79086 8 4 6.20914 4 4C4 1.79086 5.79086 0 8 0C10.2091 0 12 1.79086 12 4C12 6.20914 10.2091 8 8 8Z" fill="#BCBFC2"/>
</g>

<g id='loading'>
<path fill-rule="evenodd" clip-rule="evenodd" d="M3.43156 10.8184C4.39429 11.9973 5.85925 12.75 7.5 12.75C10.3995 12.75 12.75 10.3995 12.75 7.5H14.25C14.25 11.2279 11.2279 14.25 7.5 14.25C5.44514 14.25 3.60473 13.3318 2.36669 11.8833L1.39017 12.8598C1.31984 12.9302 1.22446 12.9697 1.125 12.9697C0.917893 12.9697 0.75 12.8018 0.75 12.5947V9.375C0.75 9.16789 0.917893 9 1.125 9H4.34467C4.44413 9 4.53951 9.03951 4.60984 9.10983C4.75628 9.25628 4.75628 9.49372 4.60984 9.64017L3.43156 10.8184ZM11.5684 4.18156C10.6057 3.00267 9.14075 2.25 7.5 2.25C4.6005 2.25 2.25 4.6005 2.25 7.5H0.75C0.75 3.77208 3.77208 0.75 7.5 0.75C9.55486 0.75 11.3953 1.6682 12.6333 3.11669L13.6098 2.14017C13.7563 1.99372 13.9937 1.99372 14.1402 2.14017C14.2105 2.21049 14.25 2.30587 14.25 2.40533V5.625C14.25 5.83211 14.0821 6 13.875 6H10.6553C10.4482 6 10.2803 5.83211 10.2803 5.625C10.2803 5.52554 10.3198 5.43016 10.3902 5.35984L11.5684 4.18156Z" fill="#BCBFC2"/>
</g>

<g id='dislike'>
<path fill-rule="evenodd" clip-rule="evenodd" d="M13.5 0.25001C13.9142 0.25001 14.25 0.585795 14.25 1.00001V7.75001C14.25 8.16422 13.9142 8.50001 13.5 8.50001H12.75C12.3358 8.50001 12 8.16422 12 7.75001V1.00001C12 0.585795 12.3358 0.25001 12.75 0.25001H13.5ZM1.97727 8.79063C1.30227 8.79063 0.75 8.19935 0.75 7.47671C0.759695 6.47239 0.783758 5.91847 0.822192 5.81494C0.860626 5.7114 1.49111 4.11921 2.71364 1.03837C2.89773 0.578495 4.40981 0.25001 4.90072 0.25001H9.21C9.885 0.25001 10.875 0.841282 10.875 1.56395V8.50001L6.80457 12.7121L6.80226 12.7145C6.44071 13.0859 5.84646 13.094 5.47498 12.7324C5.35227 12.5354 5.22955 12.2726 5.22955 12.0098C5.22955 11.9441 5.22955 11.8784 5.22955 11.8127L5.84318 8.79063H1.97727Z" fill="#BCBFC2"/>
</g>

<g id='like'>
<path fill-rule="evenodd" clip-rule="evenodd" d="M1.5 12.75C1.08579 12.75 0.75 12.4142 0.75 12V5.24999C0.75 4.83578 1.08579 4.49999 1.5 4.49999H2.25C2.66421 4.49999 3 4.83578 3 5.24999V12C3 12.4142 2.66421 12.75 2.25 12.75H1.5ZM13.0227 4.20937C13.6977 4.20937 14.25 4.80065 14.25 5.52329C14.2403 6.52761 14.2162 7.08153 14.1778 7.18506C14.1394 7.2886 13.5089 8.88079 12.2864 11.9616C12.1023 12.4215 10.5902 12.75 10.0993 12.75H5.79C5.115 12.75 4.125 12.1587 4.125 11.436V4.49999L8.19543 0.287931L8.19774 0.285542C8.55929 -0.085944 9.15354 -0.0939983 9.52502 0.267552C9.64773 0.464643 9.77045 0.727432 9.77045 0.99022C9.77045 1.05592 9.77045 1.12161 9.77045 1.18731L9.15682 4.20937H13.0227Z" fill="#BCBFC2"/>
</g>

<g id='comment'>
<path fill-rule="evenodd" clip-rule="evenodd" d="M11.1346 10.9998V13.9998L8.36064 10.9998H2.25C1.42157 10.9998 0.75 10.3282 0.75 9.49976V1.99976C0.75 1.17133 1.42157 0.499756 2.25 0.499756H12.75C13.5784 0.499756 14.25 1.17133 14.25 1.99976V9.49976C14.25 10.3282 13.5784 10.9998 12.75 10.9998H11.1346Z" fill="#BCBFC2"/>
</g>

<g id='clockdate'>
<path fill-rule="evenodd" clip-rule="evenodd" d="M7.5 14.25C3.77208 14.25 0.75 11.2279 0.75 7.5C0.75 3.77208 3.77208 0.75 7.5 0.75C11.2279 0.75 14.25 3.77208 14.25 7.5C14.25 11.2279 11.2279 14.25 7.5 14.25ZM8.25 7.5V4.5C8.25 4.08579 7.91421 3.75 7.5 3.75C7.08579 3.75 6.75 4.08579 6.75 4.5V8.25C6.75 8.66421 7.08579 9 7.5 9H9.75C10.1642 9 10.5 8.66421 10.5 8.25C10.5 7.83579 10.1642 7.5 9.75 7.5H8.25Z" fill="white"/>
</g>

<g id='mainhome'>
<path fill-rule="evenodd" clip-rule="evenodd" d="M2 17H7V11H11V17H16V10H18L9 0L0 10H2V17Z" fill="white"/>
</g>

<g id='heart'>
<g opacity="0.4">
<path fill-rule="evenodd" clip-rule="evenodd" d="M12.8391 2.96033C12.1701 2.2119 11.2807 1.80005 10.3346 1.80005C9.38831 1.80005 8.59423 2.2119 7.925 2.96033L7.49998 3.63921L7.075 2.96033C6.40597 2.2119 5.61164 1.80005 4.66557 1.80005C3.71953 1.80005 2.82982 2.2119 2.16086 2.96033C0.779712 4.50554 0.779712 7.01968 2.16086 8.56429L7.10991 13.3207C7.19083 13.4116 7.29157 13.4672 7.39682 13.4886C7.43211 13.4964 7.46761 13.5 7.50317 13.5C7.64318 13.5 7.78341 13.4403 7.89004 13.3207L12.8391 8.56429C14.2203 7.01968 14.2203 4.50554 12.8391 2.96033Z" fill="white"/>
</g>
</g>

<g id='eyeview'>
<path fill-rule="evenodd" clip-rule="evenodd" d="M15 5.26196C15 5.26196 12 10.375 7.5 10.375C3 10.375 0 5.26196 0 5.26196C0 5.26196 3 0.625 7.5 0.625C12 0.625 15 5.26196 15 5.26196ZM7.5 2.875C8.94707 2.875 10.125 4.05325 10.125 5.50082C10.125 6.94757 8.94707 8.125 7.5 8.125C6.05293 8.125 4.875 6.95085 4.875 5.50082C4.875 4.05325 6.05293 2.875 7.5 2.875ZM7.49858 6.81285C8.22277 6.81285 8.80965 6.22181 8.80965 5.4967C8.80965 4.77104 8.22222 4.18 7.49858 4.18C6.77549 4.18 6.1875 4.76939 6.1875 5.4956C6.1875 6.22181 6.77549 6.81285 7.49858 6.81285Z" fill="#BCBFC2"/>
</g>

<g id='bookmark'>
<path fill-rule="evenodd" clip-rule="evenodd" d="M2 0H12C13.1046 0 14 0.89543 14 2V18L7.09495 13L0 18V2C0 0.89543 0.89543 0 2 0Z" fill="#BCBFC2"/>
</g>

<g id='redbookmark'>
<path fill-rule="evenodd" clip-rule="evenodd" d="M2 0H12C13.1046 0 14 0.89543 14 2V18L7.09495 13L0 18V2C0 0.89543 0.89543 0 2 0Z" fill="#EB5757"/>
</g>

<g id='whiteheart'>
<path fill-rule="evenodd" clip-rule="evenodd" d="M17.1187 3.94706C16.2268 2.94916 15.041 2.40002 13.7794 2.40002C12.5178 2.40002 11.459 2.94916 10.5667 3.94706L9.99997 4.85223L9.43333 3.94706C8.5413 2.94916 7.48219 2.40002 6.22076 2.40002C4.95938 2.40002 3.7731 2.94916 2.88115 3.94706C1.03962 6.00735 1.03962 9.35953 2.88115 11.419L9.47989 17.7609C9.58778 17.8821 9.72209 17.9563 9.86242 17.9848C9.90948 17.9952 9.95681 18 10.0042 18C10.1909 18 10.3779 17.9204 10.5201 17.7609L17.1188 11.419C18.9604 9.35953 18.9604 6.00735 17.1187 3.94706Z" fill="white"/>
</g>

<g id='arrowhite'>
<path fill-rule="evenodd" clip-rule="evenodd" d="M0 2.99951V3.99951H11V6.99951L15 3.49951L11 -0.000488281V2.99951H0Z" fill="white"/>
</g>

<g id='fbookwhite'>
<path d="M39.5 20C39.5 30.7696 30.7696 39.5 20 39.5C9.23045 39.5 0.5 30.7696 0.5 20C0.5 9.23045 9.23045 0.5 20 0.5C30.7696 0.5 39.5 9.23045 39.5 20Z" stroke="#D9DADB"/>
<path fill-rule="evenodd" clip-rule="evenodd" d="M24.6234 11.0037L22.2249 11C19.5302 11 17.7888 12.7387 17.7888 15.4298V17.4723H15.3771C15.1688 17.4723 15 17.6367 15 17.8395V20.7988C15 21.0016 15.1689 21.1658 15.3771 21.1658H17.7888V28.633C17.7888 28.8358 17.9575 29 18.1659 29H21.3124C21.5208 29 21.6896 28.8356 21.6896 28.633V21.1658H24.5093C24.7177 21.1658 24.8865 21.0016 24.8865 20.7988L24.8876 17.8395C24.8876 17.7421 24.8478 17.6489 24.7772 17.5799C24.7066 17.511 24.6103 17.4723 24.5103 17.4723H21.6896V15.7409C21.6896 14.9087 21.8933 14.4862 23.0073 14.4862L24.623 14.4857C24.8312 14.4857 25 14.3212 25 14.1186V11.3708C25 11.1683 24.8314 11.0041 24.6234 11.0037Z" fill="#BCBFC2"/>
</g>

<g id='twitterwhite'>
<path d="M39.5 20C39.5 30.7696 30.7696 39.5 20 39.5C9.23045 39.5 0.5 30.7696 0.5 20C0.5 9.23045 9.23045 0.5 20 0.5C30.7696 0.5 39.5 9.23045 39.5 20Z" stroke="#D9DADB"/>
<path fill-rule="evenodd" clip-rule="evenodd" d="M28.979 14.363C28.9532 14.3323 28.9106 14.3218 28.8743 14.3386C28.3361 14.5796 27.77 14.7528 27.1869 14.8552C27.8059 14.3851 28.2672 13.7342 28.5037 12.9877C28.5151 12.952 28.5033 12.9129 28.4744 12.8897C28.4453 12.8664 28.4049 12.8634 28.373 12.8826C27.6758 13.3 26.9206 13.5942 26.1276 13.7574C25.4248 13.0212 24.4435 12.6001 23.4278 12.6001C21.3623 12.6001 19.6821 14.2962 19.6821 16.381C19.6821 16.6331 19.7063 16.8828 19.7542 17.1253C16.8934 16.9471 14.2184 15.5607 12.3995 13.3087C12.3809 13.2857 12.3527 13.2728 12.3232 13.2758C12.2939 13.278 12.2677 13.2948 12.2529 13.3203C11.9211 13.8949 11.7458 14.5524 11.7458 15.2212C11.7458 16.3804 12.2675 17.4642 13.1559 18.1794C12.6985 18.1239 12.2518 17.9786 11.849 17.7528C11.8219 17.7374 11.7882 17.7376 11.7611 17.7534C11.734 17.769 11.7168 17.7981 11.7161 17.8297L11.7157 17.8781C11.7157 19.5429 12.8025 21.0046 14.3487 21.49C13.9415 21.5562 13.5189 21.5517 13.1036 21.4717C13.073 21.466 13.0409 21.4766 13.0199 21.5004C12.999 21.5242 12.992 21.5575 13.0016 21.5877C13.4653 23.0485 14.7535 24.0729 16.2531 24.2006C15.0022 25.1257 13.5237 25.613 11.9615 25.613C11.6737 25.613 11.3839 25.5957 11.1 25.5621C11.0594 25.5574 11.0192 25.5818 11.0052 25.621C10.9912 25.6607 11.0061 25.705 11.0412 25.7275C12.7317 26.8219 14.6864 27.4001 16.6943 27.4001C23.2619 27.4001 27.1865 22.0149 27.1865 16.8088C27.1865 16.6638 27.1837 16.5196 27.178 16.3757C27.8865 15.8526 28.4947 15.2123 28.9851 14.4711C29.007 14.438 29.0046 14.3939 28.979 14.363Z" fill="#BCBFC2"/>
</g>

<g id='instawhite'>
<path d="M39.5 20C39.5 30.7696 30.7696 39.5 20 39.5C9.23045 39.5 0.5 30.7696 0.5 20C0.5 9.23045 9.23045 0.5 20 0.5C30.7696 0.5 39.5 9.23045 39.5 20Z" stroke="#D9DADB"/>
<path fill-rule="evenodd" clip-rule="evenodd" d="M20 11.5C22.3085 11.5 22.5979 11.5098 23.5045 11.5512C24.4093 11.5924 25.0272 11.7361 25.5678 11.9463C26.1268 12.1634 26.6008 12.4541 27.0734 12.9266C27.5459 13.3992 27.8366 13.8732 28.0538 14.4322C28.2639 14.9728 28.4076 15.5907 28.4488 16.4955C28.4902 17.4021 28.5 17.6915 28.5 20C28.5 22.3085 28.4902 22.5979 28.4488 23.5045C28.4076 24.4093 28.2639 25.0272 28.0538 25.5678C27.8366 26.1268 27.5459 26.6008 27.0734 27.0734C26.6008 27.5459 26.1268 27.8366 25.5678 28.0538C25.0272 28.2639 24.4093 28.4076 23.5045 28.4488C22.5979 28.4902 22.3085 28.5 20 28.5C17.6915 28.5 17.4021 28.4902 16.4955 28.4488C15.5907 28.4076 14.9728 28.2639 14.4322 28.0538C13.8732 27.8366 13.3992 27.5459 12.9266 27.0734C12.4541 26.6008 12.1634 26.1268 11.9463 25.5678C11.7361 25.0272 11.5924 24.4093 11.5512 23.5045C11.5098 22.5979 11.5 22.3085 11.5 20C11.5 17.6915 11.5098 17.4021 11.5512 16.4955C11.5924 15.5907 11.7361 14.9728 11.9463 14.4322C12.1634 13.8732 12.4541 13.3992 12.9266 12.9266C13.3992 12.4541 13.8732 12.1634 14.4322 11.9463C14.9728 11.7361 15.5907 11.5924 16.4955 11.5512C17.4021 11.5098 17.6915 11.5 20 11.5ZM19.9973 22.8298C21.5616 22.8298 22.8298 21.5616 22.8298 19.9973C22.8298 18.433 21.5616 17.1649 19.9973 17.1649C18.433 17.1649 17.1649 18.433 17.1649 19.9973C17.1649 21.5616 18.433 22.8298 19.9973 22.8298ZM19.9973 15.6338C22.4072 15.6338 24.3608 17.5874 24.3608 19.9973C24.3608 22.4072 22.4072 24.3608 19.9973 24.3608C17.5874 24.3608 15.6338 22.4072 15.6338 19.9973C15.6338 17.5874 17.5874 15.6338 19.9973 15.6338ZM25.8556 15.3722C25.8556 15.946 25.3904 16.4111 24.8166 16.4111C24.2429 16.4111 23.7778 15.946 23.7778 15.3722C23.7778 14.7985 24.2429 14.3333 24.8166 14.3333C25.3904 14.3333 25.8556 14.7985 25.8556 15.3722Z" fill="#BCBFC2"/>
</g>

<g id='instagram'>
<path fill-rule="evenodd" clip-rule="evenodd" d="M20 40C31.0457 40 40 31.0457 40 20C40 8.9543 31.0457 0 20 0C8.9543 0 0 8.9543 0 20C0 31.0457 8.9543 40 20 40Z" fill="#262626"/>
<path fill-rule="evenodd" clip-rule="evenodd" d="M20 11.5C22.3085 11.5 22.5979 11.5098 23.5045 11.5512C24.4093 11.5924 25.0272 11.7361 25.5678 11.9463C26.1268 12.1634 26.6008 12.4541 27.0734 12.9266C27.5459 13.3992 27.8366 13.8732 28.0538 14.4322C28.2639 14.9728 28.4076 15.5907 28.4488 16.4955C28.4902 17.4021 28.5 17.6915 28.5 20C28.5 22.3085 28.4902 22.5979 28.4488 23.5045C28.4076 24.4093 28.2639 25.0272 28.0538 25.5678C27.8366 26.1268 27.5459 26.6008 27.0734 27.0734C26.6008 27.5459 26.1268 27.8366 25.5678 28.0538C25.0272 28.2639 24.4093 28.4076 23.5045 28.4488C22.5979 28.4902 22.3085 28.5 20 28.5C17.6915 28.5 17.4021 28.4902 16.4955 28.4488C15.5907 28.4076 14.9728 28.2639 14.4322 28.0538C13.8732 27.8366 13.3992 27.5459 12.9266 27.0734C12.4541 26.6008 12.1634 26.1268 11.9463 25.5678C11.7361 25.0272 11.5924 24.4093 11.5512 23.5045C11.5098 22.5979 11.5 22.3085 11.5 20C11.5 17.6915 11.5098 17.4021 11.5512 16.4955C11.5924 15.5907 11.7361 14.9728 11.9463 14.4322C12.1634 13.8732 12.4541 13.3992 12.9266 12.9266C13.3992 12.4541 13.8732 12.1634 14.4322 11.9463C14.9728 11.7361 15.5907 11.5924 16.4955 11.5512C17.4021 11.5098 17.6915 11.5 20 11.5ZM19.9973 22.8298C21.5616 22.8298 22.8298 21.5616 22.8298 19.9973C22.8298 18.433 21.5616 17.1649 19.9973 17.1649C18.433 17.1649 17.1649 18.433 17.1649 19.9973C17.1649 21.5616 18.433 22.8298 19.9973 22.8298ZM19.9973 15.6338C22.4072 15.6338 24.3608 17.5874 24.3608 19.9973C24.3608 22.4072 22.4072 24.3608 19.9973 24.3608C17.5874 24.3608 15.6338 22.4072 15.6338 19.9973C15.6338 17.5874 17.5874 15.6338 19.9973 15.6338ZM25.8556 15.3722C25.8556 15.946 25.3904 16.4111 24.8166 16.4111C24.2429 16.4111 23.7778 15.946 23.7778 15.3722C23.7778 14.7985 24.2429 14.3333 24.8166 14.3333C25.3904 14.3333 25.8556 14.7985 25.8556 15.3722Z" fill="white"/>
</g>

<g id='twitter'>
<path fill-rule="evenodd" clip-rule="evenodd" d="M20 40C31.0457 40 40 31.0457 40 20C40 8.9543 31.0457 0 20 0C8.9543 0 0 8.9543 0 20C0 31.0457 8.9543 40 20 40Z" fill="#1DA1F2"/>
<path fill-rule="evenodd" clip-rule="evenodd" d="M28.979 14.3629C28.9532 14.3322 28.9106 14.3217 28.8743 14.3385C28.3361 14.5795 27.77 14.7527 27.1869 14.8551C27.8059 14.385 28.2672 13.7341 28.5037 12.9876C28.5151 12.9519 28.5033 12.9128 28.4744 12.8896C28.4453 12.8663 28.4049 12.8633 28.373 12.8825C27.6758 13.2999 26.9206 13.5941 26.1276 13.7573C25.4248 13.0211 24.4435 12.6 23.4278 12.6C21.3623 12.6 19.6821 14.2961 19.6821 16.3809C19.6821 16.633 19.7063 16.8828 19.7542 17.1252C16.8934 16.947 14.2184 15.5606 12.3995 13.3086C12.3809 13.2856 12.3527 13.2727 12.3232 13.2757C12.2939 13.2779 12.2677 13.2947 12.2529 13.3202C11.9211 13.8948 11.7458 14.5523 11.7458 15.2211C11.7458 16.3803 12.2675 17.4641 13.1559 18.1793C12.6985 18.1238 12.2518 17.9785 11.849 17.7527C11.8219 17.7373 11.7882 17.7375 11.7611 17.7533C11.734 17.7689 11.7168 17.798 11.7161 17.8296L11.7157 17.878C11.7157 19.5428 12.8025 21.0045 14.3487 21.4899C13.9415 21.5561 13.5189 21.5517 13.1036 21.4716C13.073 21.4659 13.0409 21.4765 13.0199 21.5003C12.999 21.5241 12.992 21.5574 13.0016 21.5876C13.4653 23.0484 14.7535 24.0728 16.2531 24.2005C15.0022 25.1256 13.5237 25.613 11.9615 25.613C11.6737 25.613 11.3839 25.5956 11.1 25.562C11.0594 25.5573 11.0192 25.5817 11.0052 25.621C10.9912 25.6606 11.0061 25.7049 11.0412 25.7274C12.7317 26.8218 14.6864 27.4 16.6943 27.4C23.2619 27.4 27.1865 22.0148 27.1865 16.8087C27.1865 16.6637 27.1837 16.5195 27.178 16.3757C27.8865 15.8525 28.4947 15.2122 28.9851 14.471C29.007 14.4379 29.0046 14.3938 28.979 14.3629Z" fill="white"/>
</g>

<g id='facebook'>
<path fill-rule="evenodd" clip-rule="evenodd" d="M20 40C31.0457 40 40 31.0457 40 20C40 8.9543 31.0457 0 20 0C8.9543 0 0 8.9543 0 20C0 31.0457 8.9543 40 20 40Z" fill="#4267B2"/>
<path fill-rule="evenodd" clip-rule="evenodd" d="M24.6234 11.0037L22.2249 11C19.5302 11 17.7888 12.7387 17.7888 15.4298V17.4723H15.3771C15.1688 17.4723 15 17.6367 15 17.8395V20.7988C15 21.0016 15.1689 21.1658 15.3771 21.1658H17.7888V28.633C17.7888 28.8358 17.9575 29 18.1659 29H21.3124C21.5208 29 21.6896 28.8356 21.6896 28.633V21.1658H24.5093C24.7177 21.1658 24.8865 21.0016 24.8865 20.7988L24.8876 17.8395C24.8876 17.7421 24.8478 17.6489 24.7772 17.5799C24.7066 17.511 24.6103 17.4723 24.5103 17.4723H21.6896V15.7409C21.6896 14.9087 21.8933 14.4862 23.0073 14.4862L24.623 14.4857C24.8312 14.4857 25 14.3212 25 14.1186V11.3708C25 11.1683 24.8314 11.0041 24.6234 11.0037Z" fill="white"/>
</g>

<g id='youtube'>
<path fill-rule="evenodd" clip-rule="evenodd" d="M20 40C31.0457 40 40 31.0457 40 20C40 8.9543 31.0457 0 20 0C8.9543 0 0 8.9543 0 20C0 31.0457 8.9543 40 20 40Z" fill="#FF0000"/>
<path fill-rule="evenodd" clip-rule="evenodd" d="M20 12.8C17.102 12.8 13.3406 13.5294 13.3406 13.5294L13.3311 13.5402C12.0112 13.7522 11 14.8915 11 16.277V23.7217C11.0027 25.0899 11.9937 26.2523 13.3379 26.4652L13.3406 26.4693C13.3406 26.4693 17.102 27.2 20 27.2C22.898 27.2 26.6594 26.4693 26.6594 26.4693C28.0065 26.2555 28.9986 25.0914 29 23.723V16.277C28.998 14.9096 28.0068 13.7464 26.6621 13.5334C26.6594 13.5294 22.898 12.8 20 12.8ZM18.2 16.85L23.6 20L18.2 23.15V16.85Z" fill="white"/>
</g>

<g id='quotes'>
<path fill-rule="evenodd" clip-rule="evenodd" d="M15.5556 33.4444V38.5H31.5V70H0.000775983L0 33.4444C0 21.4003 3.48649 11.429 10.3617 5.83328C15.1177 1.96256 20.8827 0 28 0V16.5789C24.1364 16.5789 15.5556 18.1255 15.5556 33.4444ZM54.0556 33.4444V38.5H70V70H38.5V33.4444C38.5 21.4003 41.5976 11.429 48.4728 5.83328C53.2288 1.96256 59.3827 0 66.5 0V16.5789C62.6364 16.5789 54.0556 18.1255 54.0556 33.4444Z" fill="#C5E4FC"/>
</g>

</svg>
